<svg xmlns="http://www.w3.org/2000/svg" xmlns:xlink="http://www.w3.org/1999/xlink" version="1.1" width="478" height="478" viewBox="0 0 478 478" xml:space="preserve">
<desc>Created with Fabric.js 3.5.0</desc>
<defs>
</defs>
<rect x="0" y="0" width="100%" height="100%" fill="#ffffff"/>
<g transform="matrix(1.195 0 0 1.195 239 239)" id="372544">
<g style="" vector-effect="non-scaling-stroke">
		<g transform="matrix(0.1333 0 0 -0.1333 -0.2363 -0.846)">
<path style="stroke: none; stroke-width: 1; stroke-dasharray: none; stroke-linecap: butt; stroke-dashoffset: 0; stroke-linejoin: miter; stroke-miterlimit: 4; is-custom-font: none; font-file-url: none; fill: rgb(167,208,22); fill-rule: nonzero; opacity: 1;" transform=" translate(-1498.5761, -1505.9951)" d="M 1387 2904 c -1 -1 -18 -4 -37 -7 c -187 -29 -235 -39 -242 -50 c -4 -6 -8 -9 -8 -5 c 0 3 -24 -3 -52 -14 c -29 -11 -63 -22 -75 -25 c -13 -3 -23 -9 -23 -14 c 0 -5 -6 -6 -13 -3 c -8 3 -20 -2 -27 -11 c -7 -8 -19 -15 -27 -15 c -8 0 -26 -9 -40 -20 c -14 -11 -30 -17 -36 -13 c -6 3 -7 1 -3 -5 c 5 -8 0 -12 -13 -12 c -11 0 -25 -8 -30 -17 c -6 -10 -11 -14 -11 -9 c 0 6 -9 0 -20 -12 c -12 -12 -26 -22 -33 -22 c -7 0 -30 -17 -51 -37 c -21 -21 -43 -38 -47 -38 c -5 0 -22 -15 -38 -32 c -17 -18 -32 -33 -35 -33 c -10 0 -46 -40 -46 -51 c 0 -5 -4 -7 -10 -4 c -5 3 -10 1 -10 -4 c 0 -10 -25 -43 -58 -77 c -6 -7 -12 -15 -12 -18 c 0 -3 -11 -17 -24 -31 c -13 -14 -32 -43 -42 -63 c -9 -20 -20 -39 -24 -42 c -4 -3 -20 -30 -36 -60 c -16 -30 -33 -58 -37 -61 c -5 -3 -9 -10 -9 -15 c 0 -5 -5 -20 -10 -34 c -6 -14 -11 -29 -12 -35 c -2 -5 -6 -17 -9 -25 c -17 -39 -36 -100 -31 -100 c 2 0 0 -8 -5 -19 c -6 -10 -13 -31 -15 -47 c -3 -16 -12 -63 -20 -104 c -18 -87 -15 -369 3 -460 c 7 -30 14 -71 17 -90 c 3 -19 10 -39 15 -44 c 12 -13 12 -29 0 -21 c -5 3 0 -14 12 -38 c 12 -23 23 -47 24 -52 c 5 -24 49 -121 61 -134 c 7 -7 11 -18 9 -24 c -2 -6 5 -19 15 -29 c 10 -10 18 -27 18 -37 c 0 -10 7 -22 16 -25 c 9 -4 15 -9 12 -12 c -5 -5 7 -21 60 -81 c 12 -14 22 -29 22 -33 c 0 -3 14 -22 31 -41 c 22 -23 33 -30 36 -20 c 4 9 24 -6 63 -44 c 34 -33 57 -50 57 -41 c 0 9 -5 16 -10 16 c -12 0 -47 39 -47 52 c 0 5 -5 6 -12 2 c -7 -5 -9 -2 -5 9 c 4 11 2 14 -7 11 c -8 -3 -17 0 -21 5 c -3 6 -10 9 -15 6 c -9 -6 -69 64 -117 135 c -93 140 -169 319 -205 485 c -31 145 -33 422 -5 555 c 118 551 536 969 1087 1087 c 65 14 129 18 270 18 c 199 0 281 -12 430 -61 c 361 -120 663 -390 825 -737 c 128 -275 157 -563 90 -902 c -10 -51 -56 -176 -97 -264 c -42 -92 -151 -262 -192 -300 c -32 -30 -34 -17 -4 18 c 12 14 -17 -14 -65 -63 c -48 -49 -84 -92 -82 -96 c 7 -11 -57 -65 -144 -122 c -73 -47 -120 -66 -71 -28 c 14 11 20 20 13 20 c -16 0 -44 -30 -38 -40 c 10 -17 -171 -96 -295 -131 c -62 -17 -242 -50 -258 -48 c -34 6 -243 -4 -227 -10 c 21 -9 243 -6 285 4 c 23 5 83 14 135 20 c 11 1 27 5 35 8 c 8 3 40 13 71 21 c 31 9 69 22 84 30 c 16 8 33 12 38 9 c 6 -3 7 -1 3 5 c -5 8 2 12 18 12 c 14 0 26 5 26 11 c 0 6 9 9 20 6 c 11 -3 18 -2 15 2 c -2 5 21 21 53 37 c 31 15 60 32 63 37 c 4 5 12 6 19 2 c 9 -5 11 -4 6 3 c -4 7 9 19 34 32 c 22 11 40 25 40 30 c 0 6 6 10 13 10 c 8 0 24 11 37 25 c 13 14 30 25 37 25 c 8 0 12 4 8 10 c -3 5 8 16 25 25 c 16 8 30 20 30 26 c 0 6 5 7 10 4 c 6 -4 10 -3 9 2 c -4 21 3 31 22 36 c 12 3 18 10 14 16 c -3 6 5 16 19 22 c 14 7 24 15 21 18 c -2 4 11 24 30 44 c 19 20 32 37 29 37 c -2 0 4 9 14 19 c 32 36 43 51 37 51 c -4 0 3 13 15 30 c 12 16 18 30 14 30 c -4 0 -1 8 7 18 c 33 40 115 237 134 322 c 2 8 4 15 5 15 c 1 0 3 9 5 20 c 2 11 10 49 17 85 c 12 64 16 378 4 430 c -4 21 -20 111 -30 170 c -2 8 -9 31 -18 50 c -8 19 -21 53 -28 75 c -7 22 -15 45 -19 50 c -3 6 -6 12 -6 15 c 0 11 -60 125 -67 128 c -5 2 -8 8 -8 14 c 0 6 -13 30 -30 55 c -17 24 -30 48 -30 53 c 0 5 -8 15 -18 22 c -9 7 -30 31 -47 53 c -53 71 -228 237 -277 264 c -15 7 -39 25 -56 40 c -16 15 -35 25 -42 23 c -7 -3 -15 0 -19 5 c -9 14 -191 102 -184 89 c 5 -7 2 -7 -8 0 c -15 12 -91 39 -98 35 c -2 -2 -7 1 -10 6 c -3 5 -35 15 -71 22 c -36 7 -74 15 -85 17 c -53 12 -339 26 -348 18 z m 1110 -2362 c -21 -21 -34 -42 -30 -48 c 5 -5 4 -6 -1 -1 c -5 4 -18 0 -28 -10 c -10 -9 -20 -14 -23 -11 c -3 2 21 30 52 61 c 31 31 59 54 62 52 c 2 -3 -12 -22 -32 -43 z" stroke-linecap="round"/>
</g>
		<g transform="matrix(0.1333 0 0 -0.1333 -2.4023 -32.3674)">
<path style="stroke: none; stroke-width: 1; stroke-dasharray: none; stroke-linecap: butt; stroke-dashoffset: 0; stroke-linejoin: miter; stroke-miterlimit: 4; is-custom-font: none; font-file-url: none; fill: rgb(167,208,22); fill-rule: nonzero; opacity: 1;" transform=" translate(-1482.3196, -1742.4743)" d="M 1338 2860 c -466 -59 -875 -354 -1074 -775 c -25 -52 -42 -99 -39 -105 c 3 -5 2 -10 -3 -10 c -11 0 -46 -114 -69 -225 c -20 -97 -22 -386 -4 -455 c 7 -25 12 -52 13 -60 c 1 -32 42 -170 50 -170 c 5 0 6 -5 2 -12 c -5 -7 -3 -8 6 -3 c 9 5 10 2 6 -11 c -13 -42 126 -298 214 -394 c 23 -26 26 -27 11 -6 c -12 16 -21 35 -21 42 c 0 8 -6 14 -13 14 c -11 0 -26 18 -51 65 c -6 11 -31 53 -55 94 c -40 66 -43 75 -31 95 c 12 20 12 20 -5 6 c -17 -14 -18 -13 -12 3 c 4 11 3 16 -3 12 c -6 -3 -10 3 -10 14 c 0 11 -5 23 -10 26 c -6 4 -8 15 -5 25 c 3 10 1 21 -5 25 c -14 9 -27 41 -34 90 c -4 21 -11 44 -17 51 c -6 7 -9 18 -8 26 c 2 7 0 27 -4 43 c -4 17 -9 43 -11 58 c -8 47 -9 229 -2 287 c 8 67 17 149 19 173 c 1 9 5 17 10 17 c 4 0 5 5 2 10 c -4 6 -2 16 3 23 c 5 7 13 31 17 54 c 4 24 12 46 18 50 c 7 4 8 0 3 -13 c -6 -15 -5 -16 5 -7 c 10 10 9 16 -1 28 c -7 9 -9 15 -4 14 c 20 -4 26 2 15 15 c -9 10 -4 21 21 46 c 18 18 27 30 21 26 c -16 -9 -17 15 -2 48 c 7 14 16 23 22 19 c 6 -3 7 -1 3 5 c -4 7 -3 12 3 12 c 5 0 8 8 7 17 c -3 18 15 44 25 37 c 4 -2 9 10 13 27 c 4 21 10 28 18 23 c 7 -4 10 -4 6 1 c -9 10 11 37 22 30 c 5 -3 6 4 3 15 c -3 12 1 22 11 26 c 9 3 14 10 11 15 c -3 4 4 13 15 19 c 11 6 26 23 34 38 c 8 15 28 36 45 47 c 16 10 28 22 26 26 c -3 3 13 22 35 40 c 23 19 52 44 65 57 c 14 13 25 19 25 15 c 1 -4 10 3 20 16 c 12 13 26 21 35 17 c 8 -3 14 -2 14 2 c -3 20 2 33 11 27 c 6 -3 10 -1 10 5 c 0 6 5 8 12 4 c 6 -4 8 -3 4 4 c -3 6 6 13 25 17 c 17 4 28 10 24 13 c -7 7 107 62 117 55 c 5 -2 8 0 8 6 c 0 13 86 45 99 36 c 7 -3 10 -1 9 6 c -2 6 6 13 17 14 c 30 5 64 13 73 19 c 10 6 41 12 156 32 c 89 15 256 20 318 10 c 29 -5 67 -11 143 -20 c 11 -1 27 -6 35 -9 c 8 -4 44 -13 80 -21 c 36 -7 64 -17 63 -22 c -1 -5 12 -10 28 -11 c 16 -1 42 -9 57 -17 c 15 -8 50 -24 77 -36 c 28 -12 66 -35 85 -50 c 19 -15 51 -35 70 -45 c 19 -10 40 -25 47 -34 c 7 -9 13 -12 13 -7 c 0 5 8 0 18 -11 c 9 -11 27 -25 39 -32 c 13 -6 30 -25 38 -42 c 9 -16 20 -27 24 -24 c 10 6 33 -19 26 -28 c -3 -4 -2 -5 1 -3 c 8 6 50 -37 46 -47 c -1 -5 2 -6 7 -2 c 6 3 15 -4 22 -17 c 6 -12 22 -33 35 -47 c 14 -14 27 -34 30 -43 c 3 -10 9 -18 13 -18 c 5 0 20 -21 33 -47 c 14 -27 38 -70 53 -98 c 37 -69 64 -143 60 -165 c -3 -13 1 -17 11 -13 c 8 3 14 0 14 -7 c 0 -22 32 -122 37 -116 c 9 9 -46 173 -88 265 c -72 156 -174 296 -299 415 c -93 87 -195 160 -210 151 c -6 -4 -9 -1 -8 6 c 8 34 -296 160 -467 194 c -95 19 -322 27 -417 15 z" stroke-linecap="round"/>
</g>
		<g transform="matrix(0.1333 0 0 -0.1333 61.3424 2.7034)">
<path style="stroke: none; stroke-width: 1; stroke-dasharray: none; stroke-linecap: butt; stroke-dashoffset: 0; stroke-linejoin: miter; stroke-miterlimit: 4; is-custom-font: none; font-file-url: none; fill: rgb(167,208,22); fill-rule: nonzero; opacity: 1;" transform=" translate(-1960.1858, -1479.5641)" d="M 2352 2115 c 4 -6 -19 -10 -63 -9 c -116 2 -109 30 -111 -391 c -2 -234 -6 -363 -13 -367 c -5 -4 -106 -8 -222 -8 l -213 0 l -1 125 c -2 140 -1 135 -12 153 c -13 20 -23 15 -71 -35 c -40 -42 -43 -49 -28 -58 c 9 -5 18 -19 20 -31 c 2 -18 -3 -21 -32 -21 c -22 0 -33 4 -29 11 c 3 6 3 8 -2 4 c -4 -4 -14 -3 -22 4 c -11 8 -12 7 -7 -6 c 5 -12 0 -19 -15 -23 c -12 -3 -21 -13 -21 -24 c 0 -11 -4 -19 -9 -19 c -14 0 -14 -537 -1 -545 c 6 -4 7 -12 3 -18 c -5 -9 -3 -9 8 0 c 12 10 21 9 42 -2 c 15 -8 26 -11 23 -7 c -4 8 79 6 100 -2 c 5 -2 20 4 33 13 c 21 16 23 26 25 117 c 1 54 5 104 9 111 c 6 9 62 12 210 11 c 111 0 207 -3 214 -5 c 8 -3 12 -37 12 -105 c 1 -125 7 -134 88 -132 c 34 1 61 -3 65 -10 c 6 -8 8 -7 8 2 c 0 7 4 11 9 7 c 13 -8 59 15 65 32 c 12 30 19 123 9 123 c -8 0 -11 139 -3 148 c 7 6 5 28 -3 39 c -9 13 -3 95 8 113 c 3 5 1 19 -6 31 c -9 17 -8 23 2 30 c 12 7 11 11 -1 19 c -8 5 -10 10 -4 10 c 12 0 13 70 2 70 c -5 0 -8 14 -8 30 c 0 17 5 30 10 30 c 15 0 12 47 -2 53 c -10 4 -10 6 0 6 c 6 1 12 8 12 17 c 0 8 -4 13 -8 10 c -5 -3 -9 11 -10 31 c -1 21 3 40 9 43 c 6 4 7 16 1 31 c -7 20 -8 222 -2 239 c 1 3 2 9 0 15 c -1 5 -1 33 -1 62 c 0 40 -4 53 -15 53 c -9 0 -12 5 -8 12 c 4 7 3 8 -5 4 c -6 -4 -19 -2 -28 6 c -9 7 -14 9 -11 3 z m 38 -635 l 0 -600 l -92 0 l -93 0 l 3 120 l 4 120 l -254 0 l -253 0 l 3 -120 l 3 -120 l -95 0 l -96 0 l 0 266 c 0 251 1 267 20 291 c 11 14 20 21 20 14 c 0 -7 21 -11 55 -11 l 55 0 l 0 45 c 0 39 -3 45 -21 45 c -20 0 -19 3 12 39 c 19 22 38 40 42 40 c 5 1 7 -67 5 -149 l -3 -150 l 253 0 l 253 0 l -3 385 l -3 385 l 93 0 l 92 0 l 0 -600 z" stroke-linecap="round"/>
</g>
		<g transform="matrix(0.1333 0 0 -0.1333 107.3315 -66.0015)">
<path style="stroke: none; stroke-width: 1; stroke-dasharray: none; stroke-linecap: butt; stroke-dashoffset: 0; stroke-linejoin: miter; stroke-miterlimit: 4; is-custom-font: none; font-file-url: none; fill: rgb(167,208,22); fill-rule: nonzero; opacity: 1;" transform=" translate(-2305, -1995)" d="M 2250 1995 l 0 -45 l 55 0 l 55 0 l 0 45 l 0 45 l -55 0 l -55 0 l 0 -45 z m 78 -7 c 3 -13 -3 -18 -22 -18 c -20 0 -26 5 -26 21 c 0 15 5 20 22 17 c 13 -2 24 -11 26 -20 z" stroke-linecap="round"/>
</g>
		<g transform="matrix(0.1333 0 0 -0.1333 107.3315 -48.6681)">
<path style="stroke: none; stroke-width: 1; stroke-dasharray: none; stroke-linecap: butt; stroke-dashoffset: 0; stroke-linejoin: miter; stroke-miterlimit: 4; is-custom-font: none; font-file-url: none; fill: rgb(167,208,22); fill-rule: nonzero; opacity: 1;" transform=" translate(-2305, -1865)" d="M 2250 1865 l 0 -45 l 55 0 l 55 0 l 0 45 l 0 45 l -55 0 l -55 0 l 0 -45 z m 80 6 c 0 -15 -39 -19 -51 -5 c -9 11 -6 14 20 14 c 17 0 31 -4 31 -9 z" stroke-linecap="round"/>
</g>
		<g transform="matrix(0.1333 0 0 -0.1333 107.3315 -32.6681)">
<path style="stroke: none; stroke-width: 1; stroke-dasharray: none; stroke-linecap: butt; stroke-dashoffset: 0; stroke-linejoin: miter; stroke-miterlimit: 4; is-custom-font: none; font-file-url: none; fill: rgb(167,208,22); fill-rule: nonzero; opacity: 1;" transform=" translate(-2305, -1745)" d="M 2250 1745 l 0 -45 l 55 0 l 55 0 l 0 45 l 0 45 l -55 0 l -55 0 l 0 -45 z m 70 11 c 0 -2 2 -11 5 -19 c 5 -10 -1 -13 -24 -9 c -20 3 -28 8 -24 18 c 4 12 43 21 43 10 z" stroke-linecap="round"/>
</g>
		<g transform="matrix(0.1333 0 0 -0.1333 107.3315 -15.3348)">
<path style="stroke: none; stroke-width: 1; stroke-dasharray: none; stroke-linecap: butt; stroke-dashoffset: 0; stroke-linejoin: miter; stroke-miterlimit: 4; is-custom-font: none; font-file-url: none; fill: rgb(167,208,22); fill-rule: nonzero; opacity: 1;" transform=" translate(-2305, -1615)" d="M 2250 1615 l 0 -45 l 55 0 l 55 0 l 0 45 l 0 45 l -55 0 l -55 0 l 0 -45 z m 75 -4 c 0 -8 -10 -16 -22 -17 c -18 -3 -23 1 -23 17 c 0 15 5 20 23 17 c 12 -2 22 -9 22 -17 z" stroke-linecap="round"/>
</g>
		<g transform="matrix(0.1333 0 0 -0.1333 107.3981 1.6651)">
<path style="stroke: none; stroke-width: 1; stroke-dasharray: none; stroke-linecap: butt; stroke-dashoffset: 0; stroke-linejoin: miter; stroke-miterlimit: 4; is-custom-font: none; font-file-url: none; fill: rgb(167,208,22); fill-rule: nonzero; opacity: 1;" transform=" translate(-2305.5, -1487.5)" d="M 2250 1488 l 0 -48 l 56 0 l 55 0 l -3 46 l -3 46 l -53 2 l -52 1 l 0 -47 z m 80 2 c 0 -15 -7 -20 -25 -20 c -18 0 -25 5 -25 20 c 0 15 7 20 25 20 c 18 0 25 -5 25 -20 z" stroke-linecap="round"/>
</g>
		<g transform="matrix(0.1333 0 0 -0.1333 15.3315 17.9984)">
<path style="stroke: none; stroke-width: 1; stroke-dasharray: none; stroke-linecap: butt; stroke-dashoffset: 0; stroke-linejoin: miter; stroke-miterlimit: 4; is-custom-font: none; font-file-url: none; fill: rgb(167,208,22); fill-rule: nonzero; opacity: 1;" transform=" translate(-1615, -1365)" d="M 1560 1365 l 0 -45 l 55 0 l 55 0 l 0 45 l 0 45 l -55 0 l -55 0 l 0 -45 z m 80 0 c 0 -19 -32 -33 -38 -17 c -2 7 -8 10 -13 7 c -5 -4 -6 1 -3 9 c 8 21 54 21 54 1 z" stroke-linecap="round"/>
</g>
		<g transform="matrix(0.1333 0 0 -0.1333 107.3315 17.9984)">
<path style="stroke: none; stroke-width: 1; stroke-dasharray: none; stroke-linecap: butt; stroke-dashoffset: 0; stroke-linejoin: miter; stroke-miterlimit: 4; is-custom-font: none; font-file-url: none; fill: rgb(167,208,22); fill-rule: nonzero; opacity: 1;" transform=" translate(-2305, -1365)" d="M 2250 1365 l 0 -45 l 55 0 l 55 0 l 0 45 l 0 45 l -55 0 l -55 0 l 0 -45 z m 80 11 c 0 -18 -15 -36 -30 -36 c -22 0 -34 15 -25 30 c 6 9 55 15 55 6 z" stroke-linecap="round"/>
</g>
		<g transform="matrix(0.1333 0 0 -0.1333 15.3315 35.3319)">
<path style="stroke: none; stroke-width: 1; stroke-dasharray: none; stroke-linecap: butt; stroke-dashoffset: 0; stroke-linejoin: miter; stroke-miterlimit: 4; is-custom-font: none; font-file-url: none; fill: rgb(167,208,22); fill-rule: nonzero; opacity: 1;" transform=" translate(-1615, -1235)" d="M 1560 1235 l 0 -45 l 55 0 l 55 0 l 0 45 l 0 45 l -55 0 l -55 0 l 0 -45 z m 74 0 c -9 -22 -42 -25 -47 -4 c -3 11 1 19 12 22 c 24 5 40 -3 35 -18 z" stroke-linecap="round"/>
</g>
		<g transform="matrix(0.1333 0 0 -0.1333 107.3315 35.3319)">
<path style="stroke: none; stroke-width: 1; stroke-dasharray: none; stroke-linecap: butt; stroke-dashoffset: 0; stroke-linejoin: miter; stroke-miterlimit: 4; is-custom-font: none; font-file-url: none; fill: rgb(167,208,22); fill-rule: nonzero; opacity: 1;" transform=" translate(-2305, -1235)" d="M 2250 1235 l 0 -45 l 55 0 l 55 0 l 0 45 l 0 45 l -55 0 l -55 0 l 0 -45 z m 79 9 c 8 -7 -12 -24 -30 -24 c -13 0 -19 7 -19 21 c 0 16 4 19 23 13 c 12 -3 24 -8 26 -10 z" stroke-linecap="round"/>
</g>
		<g transform="matrix(0.1333 0 0 -0.1333 15.3315 51.6651)">
<path style="stroke: none; stroke-width: 1; stroke-dasharray: none; stroke-linecap: butt; stroke-dashoffset: 0; stroke-linejoin: miter; stroke-miterlimit: 4; is-custom-font: none; font-file-url: none; fill: rgb(167,208,22); fill-rule: nonzero; opacity: 1;" transform=" translate(-1615, -1112.5)" d="M 1560 1113 l 0 -48 l 55 0 l 55 0 l 0 48 l 0 47 l -55 0 l -55 0 l 0 -47 z m 80 3 c 0 -14 -34 -28 -44 -18 c -15 14 -4 32 19 32 c 15 0 25 -6 25 -14 z" stroke-linecap="round"/>
</g>
		<g transform="matrix(0.1333 0 0 -0.1333 107.3981 51.6651)">
<path style="stroke: none; stroke-width: 1; stroke-dasharray: none; stroke-linecap: butt; stroke-dashoffset: 0; stroke-linejoin: miter; stroke-miterlimit: 4; is-custom-font: none; font-file-url: none; fill: rgb(167,208,22); fill-rule: nonzero; opacity: 1;" transform=" translate(-2305.5, -1112.5)" d="M 2250 1112 l 0 -47 l 53 1 l 52 2 l 3 46 l 3 46 l -55 0 l -56 0 l 0 -48 z m 80 9 c 0 -12 -23 -31 -37 -31 c -7 0 -13 8 -13 18 c 0 11 8 17 25 18 c 14 1 25 -1 25 -5 z" stroke-linecap="round"/>
</g>
		<g transform="matrix(0.1333 0 0 -0.1333 15.3315 68.6651)">
<path style="stroke: none; stroke-width: 1; stroke-dasharray: none; stroke-linecap: butt; stroke-dashoffset: 0; stroke-linejoin: miter; stroke-miterlimit: 4; is-custom-font: none; font-file-url: none; fill: rgb(167,208,22); fill-rule: nonzero; opacity: 1;" transform=" translate(-1615, -985)" d="M 1560 985 l 0 -45 l 55 0 l 55 0 l 0 45 l 0 45 l -55 0 l -55 0 l 0 -45 z m 74 9 c 22 -9 10 -24 -20 -24 c -25 0 -33 15 -11 23 c 6 3 13 6 14 6 c 1 1 8 -2 17 -5 z" stroke-linecap="round"/>
</g>
		<g transform="matrix(0.1333 0 0 -0.1333 107.3315 68.6651)">
<path style="stroke: none; stroke-width: 1; stroke-dasharray: none; stroke-linecap: butt; stroke-dashoffset: 0; stroke-linejoin: miter; stroke-miterlimit: 4; is-custom-font: none; font-file-url: none; fill: rgb(167,208,22); fill-rule: nonzero; opacity: 1;" transform=" translate(-2305, -985)" d="M 2250 985 l 0 -45 l 55 0 l 55 0 l 0 45 l 0 45 l -55 0 l -55 0 l 0 -45 z m 76 -2 c -2 -10 -8 -18 -14 -17 c -7 1 -19 2 -27 3 c -24 2 -5 31 20 31 c 16 0 22 -5 21 -17 z" stroke-linecap="round"/>
</g>
		<g transform="matrix(0.1333 0 0 -0.1333 -49.0993 7.5503)">
<path style="stroke: none; stroke-width: 1; stroke-dasharray: none; stroke-linecap: butt; stroke-dashoffset: 0; stroke-linejoin: miter; stroke-miterlimit: 4; is-custom-font: none; font-file-url: none; fill: rgb(167,208,22); fill-rule: nonzero; opacity: 1;" transform=" translate(-1131.9063, -1443.2261)" d="M 538 2003 c -7 -19 -10 -159 -9 -438 c 0 -225 1 -469 1 -541 c 0 -89 4 -136 13 -147 c 10 -14 30 -18 102 -20 c 77 -2 92 1 108 17 c 19 22 19 16 17 354 c 0 155 3 242 9 242 c 12 0 36 -41 33 -53 c -1 -5 2 -6 6 -3 c 15 9 235 -210 227 -225 c -5 -8 -4 -10 4 -5 c 15 10 43 -13 34 -28 c -3 -6 -3 -8 2 -4 c 4 4 16 3 27 -3 c 16 -8 28 -1 75 45 c 30 31 59 56 62 56 c 4 0 15 14 24 30 c 10 17 30 36 45 44 c 15 8 34 24 42 36 c 33 48 103 111 117 106 c 8 -4 11 -1 8 5 c -9 13 25 51 41 45 c 7 -3 10 2 7 14 c -6 21 16 38 27 20 c 5 -8 9 -7 14 5 c 3 9 11 13 17 9 c 8 -4 9 -3 5 5 c -4 6 -12 9 -17 6 c -30 -19 4 20 75 86 l 81 76 l -1 138 c -1 104 -5 140 -15 146 c -20 13 -21 12 -65 -28 c -22 -21 -65 -62 -96 -90 c -31 -29 -55 -53 -53 -53 c 9 0 -44 -48 -60 -54 c -10 -3 -15 -9 -12 -12 c 8 -8 -25 -44 -40 -44 c -7 0 -13 -6 -13 -14 c 0 -10 -7 -13 -20 -11 c -11 2 -18 0 -15 -5 c 3 -6 -17 -32 -44 -59 c -28 -28 -51 -55 -51 -62 c 0 -8 -5 -7 -17 2 c -9 8 -14 9 -10 2 c 8 -13 -77 -106 -87 -95 c -4 4 -7 3 -6 -3 c 5 -25 -1 -28 -16 -7 c -8 12 -22 22 -30 22 c -9 0 -14 6 -11 13 c 2 6 11 11 18 9 c 9 -2 7 4 -5 17 c -16 18 -36 20 -36 5 c 0 -3 4 -3 9 1 c 5 3 12 1 15 -4 c 4 -5 2 -12 -3 -15 c -12 -8 -33 18 -29 35 c 2 9 -4 13 -15 11 c -22 -4 -47 26 -40 48 c 4 13 4 13 -6 0 c -10 -13 -12 -13 -20 0 c -5 8 -7 18 -5 22 c 3 4 -1 8 -8 8 c -19 0 -91 77 -84 89 c 4 5 1 13 -5 17 c -8 5 -9 3 -4 -6 c 5 -8 3 -11 -6 -8 c -8 3 -13 12 -11 19 c 2 8 1 11 -3 8 c -8 -9 -65 42 -65 58 c 0 7 -6 13 -13 13 c -7 0 -18 5 -25 12 c -13 13 -54 19 -47 7 c 3 -4 -2 -10 -11 -13 c -27 -10 -54 -7 -54 7 c 0 22 12 28 28 14 c 11 -8 14 -8 9 0 c -4 6 -3 14 3 18 c 5 3 10 12 10 19 c 0 18 -92 116 -108 116 c -7 0 -17 -12 -24 -27 z m 83 -91 c -24 -3 -26 -7 -25 -45 l 1 -42 l 51 -3 c 46 -3 51 -1 54 19 c 2 19 39 -14 210 -192 l 207 -214 l 293 286 l 293 287 l 3 -132 l 3 -131 l -93 -89 c -51 -49 -184 -180 -295 -290 l -203 -201 l -190 190 l -190 190 l 0 -333 l 0 -332 l -90 0 l -90 0 l -2 561 c -2 308 -1 563 1 565 c 3 2 24 -17 47 -43 l 42 -48 l -27 -3 z" stroke-linecap="round"/>
</g>
		<g transform="matrix(0.1333 0 0 -0.1333 -113.5352 -31.6016)">
<path style="stroke: none; stroke-width: 1; stroke-dasharray: none; stroke-linecap: butt; stroke-dashoffset: 0; stroke-linejoin: miter; stroke-miterlimit: 4; is-custom-font: none; font-file-url: none; fill: rgb(167,208,22); fill-rule: nonzero; opacity: 1;" transform=" translate(-648.5, -1737)" d="M 599 1785 c 0 0 -1 -22 -2 -48 l -3 -48 l 55 3 l 54 3 l 0 44 l 0 43 l -51 2 c -29 0 -52 1 -53 1 z m 59 -31 c 33 -9 28 -33 -8 -32 c -22 1 -30 6 -30 20 c 0 20 4 21 38 12 z" stroke-linecap="round"/>
</g>
		<g transform="matrix(0.1333 0 0 -0.1333 -113.4019 -15.3348)">
<path style="stroke: none; stroke-width: 1; stroke-dasharray: none; stroke-linecap: butt; stroke-dashoffset: 0; stroke-linejoin: miter; stroke-miterlimit: 4; is-custom-font: none; font-file-url: none; fill: rgb(167,208,22); fill-rule: nonzero; opacity: 1;" transform=" translate(-649.5, -1615)" d="M 595 1615 l 0 -45 l 55 0 l 55 0 l 0 45 l 0 45 l -55 0 l -56 0 l 1 -45 z m 81 -2 c -4 -26 -33 -28 -46 -4 c -10 19 -8 21 19 21 c 22 0 29 -4 27 -17 z" stroke-linecap="round"/>
</g>
		<g transform="matrix(0.1333 0 0 -0.1333 -113.3351 1.3985)">
<path style="stroke: none; stroke-width: 1; stroke-dasharray: none; stroke-linecap: butt; stroke-dashoffset: 0; stroke-linejoin: miter; stroke-miterlimit: 4; is-custom-font: none; font-file-url: none; fill: rgb(167,208,22); fill-rule: nonzero; opacity: 1;" transform=" translate(-650, -1489.5)" d="M 599 1533 c 0 -2 -1 -22 -1 -45 l -1 -43 l 53 0 l 53 0 l 0 44 l 0 43 l -51 2 c -29 0 -52 0 -53 -1 z m 69 -32 c 10 -6 10 -10 -3 -21 c -12 -10 -15 -10 -15 1 c 0 12 -2 12 -9 1 c -7 -11 -9 -11 -14 1 c -10 25 14 36 41 18 z" stroke-linecap="round"/>
</g>
		<g transform="matrix(0.1333 0 0 -0.1333 -113.3351 17.9984)">
<path style="stroke: none; stroke-width: 1; stroke-dasharray: none; stroke-linecap: butt; stroke-dashoffset: 0; stroke-linejoin: miter; stroke-miterlimit: 4; is-custom-font: none; font-file-url: none; fill: rgb(167,208,22); fill-rule: nonzero; opacity: 1;" transform=" translate(-650, -1365)" d="M 595 1365 l 0 -45 l 55 0 l 55 0 l 0 45 l 0 45 l -55 0 l -55 0 l 0 -45 z m 78 6 c 14 -2 7 -19 -10 -23 c -24 -6 -43 1 -43 16 c 0 11 16 13 53 7 z" stroke-linecap="round"/>
</g>
		<g transform="matrix(0.1333 0 0 -0.1333 -113.3351 35.3319)">
<path style="stroke: none; stroke-width: 1; stroke-dasharray: none; stroke-linecap: butt; stroke-dashoffset: 0; stroke-linejoin: miter; stroke-miterlimit: 4; is-custom-font: none; font-file-url: none; fill: rgb(167,208,22); fill-rule: nonzero; opacity: 1;" transform=" translate(-650, -1235)" d="M 595 1235 l 0 -45 l 55 0 l 55 0 l 0 45 l 0 45 l -55 0 l -55 0 l 0 -45 z m 79 8 c -2 -28 -5 -31 -29 -29 c -25 1 -36 15 -12 17 c 10 0 10 2 0 6 c -22 8 -14 19 15 18 c 15 0 27 -5 26 -12 z" stroke-linecap="round"/>
</g>
		<g transform="matrix(0.1333 0 0 -0.1333 -113.3351 51.6624)">
<path style="stroke: none; stroke-width: 1; stroke-dasharray: none; stroke-linecap: butt; stroke-dashoffset: 0; stroke-linejoin: miter; stroke-miterlimit: 4; is-custom-font: none; font-file-url: none; fill: rgb(167,208,22); fill-rule: nonzero; opacity: 1;" transform=" translate(-650, -1112.5203)" d="M 599 1156 c 0 -4 -1 -25 -1 -48 l -1 -42 l 53 1 l 53 1 l 0 43 l 0 44 l -51 3 c -29 2 -52 1 -53 -2 z m 78 -46 c 2 -23 -28 -28 -46 -7 c -13 17 -5 27 24 27 c 14 0 21 -7 22 -20 z" stroke-linecap="round"/>
</g>
		<g transform="matrix(0.1333 0 0 -0.1333 -113.1352 68.8651)">
<path style="stroke: none; stroke-width: 1; stroke-dasharray: none; stroke-linecap: butt; stroke-dashoffset: 0; stroke-linejoin: miter; stroke-miterlimit: 4; is-custom-font: none; font-file-url: none; fill: rgb(167,208,22); fill-rule: nonzero; opacity: 1;" transform=" translate(-651.5, -983.5)" d="M 599 1025 c 0 -3 -1 -24 -1 -46 l -1 -42 l 53 0 l 52 0 l 2 47 l 2 46 l -53 0 c -29 0 -53 -2 -54 -5 z m 68 -45 c -2 -24 -40 -21 -45 3 c -3 12 4 17 22 17 c 18 0 24 -5 23 -20 z" stroke-linecap="round"/>
</g>
		<g transform="matrix(0.1333 0 0 -0.1333 177.6391 -38.0005)">
<path style="stroke: none; stroke-width: 1; stroke-dasharray: none; stroke-linecap: butt; stroke-dashoffset: 0; stroke-linejoin: miter; stroke-miterlimit: 4; is-custom-font: none; font-file-url: none; fill: rgb(167,208,22); fill-rule: nonzero; opacity: 1;" transform=" translate(-2832.2952, -1785)" d="M 2826 1785 c 4 -8 8 -15 10 -15 c 2 0 4 7 4 15 c 0 8 -4 15 -10 15 c -5 0 -7 -7 -4 -15 z" stroke-linecap="round"/>
</g>
		<g transform="matrix(0.1333 0 0 -0.1333 179.3958 -0.5417)">
<path style="stroke: none; stroke-width: 1; stroke-dasharray: none; stroke-linecap: butt; stroke-dashoffset: 0; stroke-linejoin: miter; stroke-miterlimit: 4; is-custom-font: none; font-file-url: none; fill: rgb(167,208,22); fill-rule: nonzero; opacity: 1;" transform=" translate(-2845.474, -1503.9994)" d="M 2826 1752 c -3 -6 -2 -12 3 -14 c 24 -8 33 -354 13 -445 c -6 -24 -6 -43 -2 -43 c 21 0 35 253 21 385 c -12 105 -22 138 -35 117 z" stroke-linecap="round"/>
</g>
		<g transform="matrix(0.1333 0 0 -0.1333 17.3038 -12.1369)">
<path style="stroke: none; stroke-width: 1; stroke-dasharray: none; stroke-linecap: butt; stroke-dashoffset: 0; stroke-linejoin: miter; stroke-miterlimit: 4; is-custom-font: none; font-file-url: none; fill: rgb(167,208,22); fill-rule: nonzero; opacity: 1;" transform=" translate(-1629.7829, -1591.0226)" d="M 1625 1590 c -16 -17 -16 -20 -3 -15 c 9 4 19 13 22 21 c 7 19 2 18 -19 -6 z" stroke-linecap="round"/>
</g>
		<g transform="matrix(0.1333 0 0 -0.1333 177.9742 37.8847)">
<path style="stroke: none; stroke-width: 1; stroke-dasharray: none; stroke-linecap: butt; stroke-dashoffset: 0; stroke-linejoin: miter; stroke-miterlimit: 4; is-custom-font: none; font-file-url: none; fill: rgb(167,208,22); fill-rule: nonzero; opacity: 1;" transform=" translate(-2834.8076, -1215.8618)" d="M 2831 1214 c 0 -11 3 -14 6 -6 c 3 7 2 16 -1 19 c -3 4 -6 -2 -5 -13 z" stroke-linecap="round"/>
</g>
		<g transform="matrix(0.1333 0 0 -0.1333 174.2574 49.8291)">
<path style="stroke: none; stroke-width: 1; stroke-dasharray: none; stroke-linecap: butt; stroke-dashoffset: 0; stroke-linejoin: miter; stroke-miterlimit: 4; is-custom-font: none; font-file-url: none; fill: rgb(167,208,22); fill-rule: nonzero; opacity: 1;" transform=" translate(-2806.9364, -1126.2659)" d="M 2811 1148 c -7 -24 -17 -51 -22 -60 c -5 -10 -5 -19 1 -23 c 6 -4 10 -3 9 2 c -1 4 2 19 8 33 c 13 31 26 90 20 90 c -2 0 -9 -19 -16 -42 z" stroke-linecap="round"/>
</g>
		<g transform="matrix(0.1333 0 0 -0.1333 123.3076 48.5513)">
<path style="stroke: none; stroke-width: 1; stroke-dasharray: none; stroke-linecap: butt; stroke-dashoffset: 0; stroke-linejoin: miter; stroke-miterlimit: 4; is-custom-font: none; font-file-url: none; fill: rgb(167,208,22); fill-rule: nonzero; opacity: 1;" transform=" translate(-2424.8076, -1135.8618)" d="M 2421 1134 c 0 -11 3 -14 6 -6 c 3 7 2 16 -1 19 c -3 4 -6 -2 -5 -13 z" stroke-linecap="round"/>
</g>
		<g transform="matrix(0.1333 0 0 -0.1333 169.1545 66.3141)">
<path style="stroke: none; stroke-width: 1; stroke-dasharray: none; stroke-linecap: butt; stroke-dashoffset: 0; stroke-linejoin: miter; stroke-miterlimit: 4; is-custom-font: none; font-file-url: none; fill: rgb(167,208,22); fill-rule: nonzero; opacity: 1;" transform=" translate(-2768.6617, -1002.6387)" d="M 2763 1004 c -6 -13 -7 -24 -3 -24 c 9 0 25 39 18 45 c -2 2 -8 -7 -15 -21 z" stroke-linecap="round"/>
</g>
		<g transform="matrix(0.1333 0 0 -0.1333 163.1608 80.4709)">
<path style="stroke: none; stroke-width: 1; stroke-dasharray: none; stroke-linecap: butt; stroke-dashoffset: 0; stroke-linejoin: miter; stroke-miterlimit: 4; is-custom-font: none; font-file-url: none; fill: rgb(167,208,22); fill-rule: nonzero; opacity: 1;" transform=" translate(-2723.709, -896.4627)" d="M 2720 899 c -7 -11 -10 -23 -7 -25 c 2 -2 9 7 15 21 c 14 30 7 33 -8 4 z" stroke-linecap="round"/>
</g>
		<g transform="matrix(0.1333 0 0 -0.1333 151.5697 97.9432)">
<path style="stroke: none; stroke-width: 1; stroke-dasharray: none; stroke-linecap: butt; stroke-dashoffset: 0; stroke-linejoin: miter; stroke-miterlimit: 4; is-custom-font: none; font-file-url: none; fill: rgb(167,208,22); fill-rule: nonzero; opacity: 1;" transform=" translate(-2636.7897, -765.4002)" d="M 2694 862 c 4 -6 -2 -20 -14 -32 c -11 -11 -20 -25 -20 -31 c 0 -14 -60 -102 -77 -112 c -7 -4 -13 -13 -13 -18 c 0 -18 20 1 58 59 c 72 107 84 130 71 138 c -8 4 -9 3 -5 -4 z" stroke-linecap="round"/>
</g>
		<g transform="matrix(0.1333 0 0 -0.1333 2.1696 125.3001)">
<path style="stroke: none; stroke-width: 1; stroke-dasharray: none; stroke-linecap: butt; stroke-dashoffset: 0; stroke-linejoin: miter; stroke-miterlimit: 4; is-custom-font: none; font-file-url: none; fill: rgb(167,208,22); fill-rule: nonzero; opacity: 1;" transform=" translate(-1516.4111, -560.1776)" d="M 1416 841 c 5 -11 0 -13 -24 -9 c -17 2 -29 1 -27 -3 c 3 -4 -9 -12 -26 -19 c -17 -7 -37 -24 -46 -36 c -18 -29 -35 -22 -29 12 c 3 16 1 22 -6 18 c -7 -5 -9 -2 -5 9 c 4 11 1 15 -13 12 c -11 -2 -22 1 -26 6 c -4 6 -11 6 -19 -1 c -8 -7 -20 -8 -26 -4 c -7 4 -9 3 -5 -4 c 3 -6 -3 -16 -14 -22 c -12 -6 -19 -18 -16 -25 c 10 -26 -24 -3 -39 26 c -11 20 -20 26 -32 22 c -12 -5 -14 -3 -8 7 c 6 10 4 11 -6 4 c -8 -5 -18 -9 -24 -9 c -34 -1 -45 -22 -50 -100 c -3 -44 -7 -99 -10 -121 c -5 -37 -3 -42 17 -47 c 21 -6 21 -7 5 -25 c -24 -27 -31 -209 -9 -232 c 9 -8 18 -15 21 -15 c 3 0 11 -4 18 -8 c 15 -10 26 9 33 58 c 4 34 9 40 29 40 c 20 0 24 -6 27 -34 c 5 -45 21 -63 48 -55 c 12 4 24 11 27 17 c 4 5 13 6 20 1 c 12 -6 12 -5 1 8 c -8 10 -12 46 -11 108 c 2 86 0 95 -21 112 c -21 17 -24 17 -40 3 c -10 -9 -20 -30 -24 -46 c -5 -25 -10 -30 -28 -27 c -16 2 -24 11 -26 28 c -2 14 -8 31 -14 37 c -7 9 -6 15 6 19 c 9 3 16 16 16 27 c 0 21 0 21 16 -1 c 21 -30 65 -26 79 6 c 10 23 31 32 22 8 c -14 -36 73 -52 92 -17 c 6 10 7 22 3 26 c -4 4 7 -1 24 -11 c 31 -18 36 -44 8 -44 c -8 0 -17 -7 -20 -15 c -4 -8 -9 -13 -13 -11 c -3 3 -6 -27 -6 -65 c 0 -38 4 -69 9 -69 c 5 0 7 -3 3 -6 c -10 -10 21 -62 47 -79 c 23 -15 119 -18 109 -3 c -4 7 12 12 30 9 c 4 0 6 2 5 6 c -4 14 13 53 21 49 c 6 -4 6 22 0 141 c -1 23 -5 41 -8 40 c -7 -2 -11 7 -11 24 c 0 5 5 7 12 3 c 7 -5 8 -3 3 6 c -5 8 -3 11 6 8 c 14 -5 32 32 49 102 c 1 7 29 -71 33 -93 c 2 -10 10 -22 17 -27 c 11 -7 11 -12 -2 -32 c -10 -16 -15 -51 -15 -113 c -1 -127 15 -151 75 -114 c 15 10 18 17 11 26 c -11 13 -4 33 11 33 c 5 0 18 -15 29 -34 c 27 -43 60 -53 83 -25 c 14 17 17 38 15 117 c -1 53 -6 102 -9 108 c -10 15 1 24 28 24 c 13 0 27 7 32 17 c 9 14 10 14 17 -6 c 3 -12 12 -19 18 -15 c 7 3 4 -1 -5 -9 c -34 -27 -11 -78 32 -72 c 10 2 16 -5 16 -16 c 0 -11 -4 -19 -9 -19 c -4 0 -6 -4 -3 -8 c 3 -5 7 -35 10 -67 c 4 -54 16 -75 41 -75 c 28 0 36 20 40 99 c 2 46 6 85 8 88 c 5 4 29 10 50 12 c 13 2 7 48 -8 61 c -8 7 -12 16 -9 21 c 14 24 11 50 -8 63 c -18 13 -19 17 -8 31 c 16 19 21 55 8 55 c -12 0 -10 34 3 47 c 16 16 3 59 -18 67 c -10 3 -25 9 -33 12 c -13 5 -13 4 0 -5 c 12 -9 6 -10 -23 -7 c -21 2 -40 6 -44 10 c -3 3 -12 1 -19 -5 c -8 -6 -21 -9 -29 -5 c -9 3 -13 2 -10 -4 c 3 -6 -3 -10 -15 -10 c -12 0 -19 3 -17 8 c 6 8 -137 7 -151 -2 c -5 -3 -16 -26 -23 -51 c -7 -25 -17 -45 -22 -45 c -4 0 -6 4 -2 9 c 3 5 0 13 -6 16 c -5 4 -8 13 -5 20 c 3 8 -2 19 -9 25 c -8 7 -12 16 -9 21 c 3 5 -1 10 -8 10 c -7 1 -24 3 -37 4 c -13 1 -32 -6 -43 -17 c -16 -16 -22 -17 -35 -7 c -8 7 -22 14 -30 15 c -8 1 -21 11 -30 21 c -8 10 -11 12 -7 4 z m 386 -41 l 28 0 l 0 -115 l 0 -115 l -27 0 l -28 0 l 3 106 c 3 90 1 109 -15 127 c -9 12 -11 16 -3 10 c 8 -7 27 -13 42 -13 z m -334 -16 c 32 -21 55 -79 48 -120 c -15 -76 -90 -119 -158 -91 c -20 9 -43 26 -51 39 c -74 114 49 245 161 172 z m -375 -37 c 9 -30 17 -66 17 -80 c 0 -36 20 -35 21 1 c 0 15 8 50 18 77 c 16 47 20 50 54 53 c 34 3 37 1 38 -25 c 0 -15 4 -67 7 -115 l 7 -88 l -27 0 l -28 0 l -1 93 c 0 101 -5 99 -39 -20 c -18 -64 -24 -73 -44 -73 c -22 0 -26 9 -47 93 l -24 92 l -3 -92 l -3 -93 l -27 0 l -27 0 l 9 115 l 9 115 l 37 0 c 35 0 37 -2 53 -53 z m 517 -13 c 11 -36 20 -77 20 -90 c 0 -13 5 -24 10 -24 c 6 0 10 10 10 21 c 0 12 9 53 20 90 c 20 66 22 69 51 69 c 24 0 29 -3 25 -17 c -4 -10 -21 -61 -39 -113 c -33 -94 -34 -95 -68 -98 l -34 -3 l -34 103 c -19 57 -36 109 -38 116 c -4 8 5 12 26 12 c 29 0 31 -3 51 -66 z m 420 46 c 0 -17 -7 -20 -50 -20 c -47 0 -50 -2 -50 -25 c 0 -23 4 -25 45 -25 c 40 0 45 -2 45 -23 c 0 -20 -4 -22 -45 -19 c -44 4 -45 4 -45 -27 c 0 -31 0 -31 53 -31 c 46 0 53 -3 53 -20 c 0 -18 -7 -20 -78 -20 l -78 0 l 0 115 l 0 115 l 75 0 c 68 0 75 -2 75 -20 z m -276 -148 c 3 -49 0 -77 -8 -85 c -20 -20 -37 -56 -34 -71 c 6 -31 -18 -19 -29 14 c -7 19 -12 31 -12 26 c -1 -11 -31 14 -31 26 c 0 5 4 7 8 4 c 14 -8 52 24 52 43 c 0 10 7 24 15 31 c 8 7 14 18 14 24 c -3 14 12 68 17 63 c 2 -2 5 -36 8 -75 z m -347 -95 c 6 -4 14 -3 18 3 c 3 5 12 10 18 10 c 7 0 0 -8 -14 -18 c -24 -16 -25 -22 -24 -90 c 2 -67 0 -75 -19 -82 c -12 -4 -23 -6 -26 -5 c -3 2 -5 41 -5 88 c 1 47 -3 85 -8 84 c -5 -1 -11 3 -13 8 c -5 13 55 14 73 2 z m -385 -62 l -5 -45 l 57 0 l 56 0 l 0 45 c 0 32 4 45 14 45 c 12 0 15 -22 18 -105 c 3 -95 1 -105 -14 -105 c -15 0 -18 9 -18 50 l 0 50 l -56 0 l -56 0 l 4 -50 c 2 -42 0 -50 -14 -50 c -16 0 -18 12 -18 105 c 0 96 2 105 19 105 c 16 0 18 -6 13 -45 z m 308 -31 c 0 -90 10 -114 48 -114 c 44 0 52 16 52 107 c 0 73 2 83 18 83 c 16 0 18 -9 15 -87 c -4 -105 -19 -128 -84 -128 c -63 0 -79 27 -79 131 c 0 68 3 84 15 84 c 12 0 15 -15 15 -76 z m 359 -9 c 30 -47 55 -85 55 -85 c 1 0 -1 38 -3 85 c -3 73 -1 85 13 85 c 14 0 16 -15 16 -105 c 0 -84 -3 -105 -14 -105 c -12 0 -82 90 -121 155 c -7 12 -9 -9 -7 -69 c 3 -73 1 -86 -12 -86 c -14 0 -16 16 -16 105 c 0 136 13 139 89 20 z m 361 70 c 0 -10 -11 -15 -35 -15 l -35 0 l 0 -90 c 0 -73 -3 -90 -15 -90 c -12 0 -15 17 -15 93 l 0 93 l -35 -4 c -27 -3 -35 -1 -35 12 c 0 13 14 16 85 16 c 69 0 85 -3 85 -15 z" stroke-linecap="round"/>
</g>
		<g transform="matrix(0.1333 0 0 -0.1333 -13.3351 108.6641)">
<path style="stroke: none; stroke-width: 1; stroke-dasharray: none; stroke-linecap: butt; stroke-dashoffset: 0; stroke-linejoin: miter; stroke-miterlimit: 4; is-custom-font: none; font-file-url: none; fill: rgb(167,208,22); fill-rule: nonzero; opacity: 1;" transform=" translate(-1400, -685)" d="M 1359 743 c -8 -9 -14 -35 -14 -58 c 0 -51 18 -75 55 -75 c 37 0 55 24 55 75 c 0 51 -18 75 -55 75 c -15 0 -34 -7 -41 -17 z m 66 -51 c -4 -60 -4 -62 -24 -62 c -26 0 -35 17 -32 59 c 2 39 14 51 41 44 c 13 -3 17 -14 15 -41 z" stroke-linecap="round"/>
</g>
		<g transform="matrix(0.1333 0 0 -0.1333 5.1542 116.4902)">
<path style="stroke: none; stroke-width: 1; stroke-dasharray: none; stroke-linecap: butt; stroke-dashoffset: 0; stroke-linejoin: miter; stroke-miterlimit: 4; is-custom-font: none; font-file-url: none; fill: rgb(167,208,22); fill-rule: nonzero; opacity: 1;" transform=" translate(-1538.6582, -626.3207)" d="M 1535 629 c -4 -6 -5 -12 -2 -15 c 2 -3 7 2 10 11 c 7 17 1 20 -8 4 z" stroke-linecap="round"/>
</g>
		<g transform="matrix(0.1333 0 0 -0.1333 -78.1209 155.0686)">
<path style="stroke: none; stroke-width: 1; stroke-dasharray: none; stroke-linecap: butt; stroke-dashoffset: 0; stroke-linejoin: miter; stroke-miterlimit: 4; is-custom-font: none; font-file-url: none; fill: rgb(167,208,22); fill-rule: nonzero; opacity: 1;" transform=" translate(-914.2042, -336.9289)" d="M 470 561 c 0 -6 7 -14 15 -17 c 8 -3 17 -14 20 -25 c 4 -10 13 -19 21 -19 c 17 0 19 -26 2 -34 c -7 -2 -2 -4 11 -2 c 22 2 44 -12 112 -76 c 11 -10 19 -15 19 -10 c 0 4 5 -1 11 -10 c 5 -10 16 -18 24 -18 c 7 0 20 -6 27 -13 c 27 -27 76 -56 82 -50 c 3 3 6 1 6 -5 c 0 -7 6 -12 13 -12 c 21 0 77 -30 77 -41 c 0 -5 8 -9 18 -9 c 10 0 22 -3 26 -7 c 3 -4 14 -8 23 -9 c 10 -2 26 -7 38 -13 c 34 -16 60 -24 69 -22 c 4 1 13 -2 20 -7 c 6 -5 29 -13 51 -17 c 22 -5 47 -10 55 -12 c 8 -1 38 -5 65 -8 c 28 -4 59 -9 70 -12 c 13 -3 17 -2 10 5 c -5 5 -53 17 -105 25 c -154 26 -431 131 -415 158 c 6 8 10 7 17 -2 c 8 -11 9 -11 5 1 c -2 8 -9 15 -15 15 c -6 0 -17 6 -23 13 c -7 6 -18 12 -23 12 c -6 0 0 -9 14 -20 c 44 -35 5 -21 -60 21 c -34 22 -60 43 -56 46 c 3 3 14 0 23 -7 c 10 -8 6 -1 -9 14 c -16 15 -28 31 -28 37 c 0 6 -4 7 -10 4 c -5 -3 -21 5 -35 19 c -14 14 -25 21 -25 16 c 0 -4 18 -23 40 -40 c 23 -18 39 -35 36 -38 c -7 -6 -80 53 -158 127 c -32 30 -58 49 -58 42 z" stroke-linecap="round"/>
</g>
		<g transform="matrix(0.1333 0 0 -0.1333 115.3192 140.6632)">
<path style="stroke: none; stroke-width: 1; stroke-dasharray: none; stroke-linecap: butt; stroke-dashoffset: 0; stroke-linejoin: miter; stroke-miterlimit: 4; is-custom-font: none; font-file-url: none; fill: rgb(167,208,22); fill-rule: nonzero; opacity: 1;" transform=" translate(-2364.8984, -445.0221)" d="M 2359 443 c -13 -16 -12 -17 4 -4 c 16 13 21 21 13 21 c -2 0 -10 -8 -17 -17 z" stroke-linecap="round"/>
</g>
		<g transform="matrix(0.1333 0 0 -0.1333 107.7676 144.1566)">
<path style="stroke: none; stroke-width: 1; stroke-dasharray: none; stroke-linecap: butt; stroke-dashoffset: 0; stroke-linejoin: miter; stroke-miterlimit: 4; is-custom-font: none; font-file-url: none; fill: rgb(167,208,22); fill-rule: nonzero; opacity: 1;" transform=" translate(-2308.2637, -418.8188)" d="M 2285 440 c -3 -5 -4 -11 -1 -11 c 3 -1 11 -3 16 -4 c 6 -1 13 -3 16 -4 c 4 0 0 -9 -7 -18 c -11 -15 -9 -14 9 1 c 20 17 22 31 4 31 c -4 0 -12 4 -19 8 c -6 4 -14 3 -18 -3 z" stroke-linecap="round"/>
</g>
		<g transform="matrix(0.1333 0 0 -0.1333 101.2733 150.1068)">
<path style="stroke: none; stroke-width: 1; stroke-dasharray: none; stroke-linecap: butt; stroke-dashoffset: 0; stroke-linejoin: miter; stroke-miterlimit: 4; is-custom-font: none; font-file-url: none; fill: rgb(167,208,22); fill-rule: nonzero; opacity: 1;" transform=" translate(-2259.5567, -374.1927)" d="M 2273 395 c 4 -5 -5 -17 -20 -27 c -16 -10 -23 -18 -18 -18 c 6 0 21 9 34 19 c 19 14 21 20 10 26 c -8 5 -11 4 -6 0 z" stroke-linecap="round"/>
</g>
		<g transform="matrix(0.1333 0 0 -0.1333 69.3329 151.3329)">
<path style="stroke: none; stroke-width: 1; stroke-dasharray: none; stroke-linecap: butt; stroke-dashoffset: 0; stroke-linejoin: miter; stroke-miterlimit: 4; is-custom-font: none; font-file-url: none; fill: rgb(167,208,22); fill-rule: nonzero; opacity: 1;" transform=" translate(-2020, -365)" d="M 2010 371 c 0 -5 5 -13 10 -16 c 6 -3 10 -2 10 4 c 0 5 -4 13 -10 16 c -5 3 -10 2 -10 -4 z" stroke-linecap="round"/>
</g>
		<g transform="matrix(0.1333 0 0 -0.1333 -98.6673 152.6662)">
<path style="stroke: none; stroke-width: 1; stroke-dasharray: none; stroke-linecap: butt; stroke-dashoffset: 0; stroke-linejoin: miter; stroke-miterlimit: 4; is-custom-font: none; font-file-url: none; fill: rgb(167,208,22); fill-rule: nonzero; opacity: 1;" transform=" translate(-760, -355)" d="M 740 366 c 0 -3 9 -10 20 -16 c 11 -6 20 -8 20 -6 c 0 3 -9 10 -20 16 c -11 6 -20 8 -20 6 z" stroke-linecap="round"/>
</g>
		<g transform="matrix(0.1333 0 0 -0.1333 80.0635 163.1961)">
<path style="stroke: none; stroke-width: 1; stroke-dasharray: none; stroke-linecap: butt; stroke-dashoffset: 0; stroke-linejoin: miter; stroke-miterlimit: 4; is-custom-font: none; font-file-url: none; fill: rgb(167,208,22); fill-rule: nonzero; opacity: 1;" transform=" translate(-2100.4812, -276.0257)" d="M 2094 274 c -18 -14 -18 -15 4 -4 c 12 6 22 13 22 15 c 0 8 -5 6 -26 -11 z" stroke-linecap="round"/>
</g>
		<g transform="matrix(0.1333 0 0 -0.1333 -77.7035 163.9789)">
<path style="stroke: none; stroke-width: 1; stroke-dasharray: none; stroke-linecap: butt; stroke-dashoffset: 0; stroke-linejoin: miter; stroke-miterlimit: 4; is-custom-font: none; font-file-url: none; fill: rgb(167,208,22); fill-rule: nonzero; opacity: 1;" transform=" translate(-917.227, -270.1563)" d="M 906 268 c 3 -5 10 -6 15 -3 c 13 9 11 12 -6 12 c -8 0 -12 -4 -9 -9 z" stroke-linecap="round"/>
</g>
		<g transform="matrix(0.1333 0 0 -0.1333 -61.573 170.6663)">
<path style="stroke: none; stroke-width: 1; stroke-dasharray: none; stroke-linecap: butt; stroke-dashoffset: 0; stroke-linejoin: miter; stroke-miterlimit: 4; is-custom-font: none; font-file-url: none; fill: rgb(167,208,22); fill-rule: nonzero; opacity: 1;" transform=" translate(-1038.2048, -220)" d="M 1030 220 c 0 -5 5 -10 11 -10 c 5 0 7 5 4 10 c -3 6 -8 10 -11 10 c -2 0 -4 -4 -4 -10 z" stroke-linecap="round"/>
</g>
		<g transform="matrix(0.1333 0 0 -0.1333 -48.8645 174.7628)">
<path style="stroke: none; stroke-width: 1; stroke-dasharray: none; stroke-linecap: butt; stroke-dashoffset: 0; stroke-linejoin: miter; stroke-miterlimit: 4; is-custom-font: none; font-file-url: none; fill: rgb(167,208,22); fill-rule: nonzero; opacity: 1;" transform=" translate(-1133.5193, -189.2771)" d="M 1127 189 c 7 -7 15 -10 18 -7 c 3 3 -2 9 -12 12 c -14 6 -15 5 -6 -5 z" stroke-linecap="round"/>
</g>
		<g transform="matrix(0.1333 0 0 -0.1333 47.4478 175.3076)">
<path style="stroke: none; stroke-width: 1; stroke-dasharray: none; stroke-linecap: butt; stroke-dashoffset: 0; stroke-linejoin: miter; stroke-miterlimit: 4; is-custom-font: none; font-file-url: none; fill: rgb(167,208,22); fill-rule: nonzero; opacity: 1;" transform=" translate(-1855.8618, -185.1924)" d="M 1848 183 c 7 -3 16 -2 19 1 c 4 3 -2 6 -13 5 c -11 0 -14 -3 -6 -6 z" stroke-linecap="round"/>
</g>
		<g transform="matrix(0.1333 0 0 -0.1333 -38.651 177.3122)">
<path style="stroke: none; stroke-width: 1; stroke-dasharray: none; stroke-linecap: butt; stroke-dashoffset: 0; stroke-linejoin: miter; stroke-miterlimit: 4; is-custom-font: none; font-file-url: none; fill: rgb(167,208,22); fill-rule: nonzero; opacity: 1;" transform=" translate(-1210.125, -170.1562)" d="M 1190 170 c 8 -5 24 -9 35 -9 c 20 0 20 0 0 9 c -11 5 -27 9 -35 9 c -13 1 -13 0 0 -9 z" stroke-linecap="round"/>
</g>
		<g transform="matrix(0.1333 0 0 -0.1333 37.4063 177.3313)">
<path style="stroke: none; stroke-width: 1; stroke-dasharray: none; stroke-linecap: butt; stroke-dashoffset: 0; stroke-linejoin: miter; stroke-miterlimit: 4; is-custom-font: none; font-file-url: none; fill: rgb(167,208,22); fill-rule: nonzero; opacity: 1;" transform=" translate(-1780.5522, -170.0122)" d="M 1775 170 c -19 -8 -19 -9 3 -9 c 12 -1 22 4 22 9 c 0 6 -1 10 -2 9 c -2 0 -12 -4 -23 -9 z" stroke-linecap="round"/>
</g>
		<g transform="matrix(0.1333 0 0 -0.1333 -29.0086 178.793)">
<path style="stroke: none; stroke-width: 1; stroke-dasharray: none; stroke-linecap: butt; stroke-dashoffset: 0; stroke-linejoin: miter; stroke-miterlimit: 4; is-custom-font: none; font-file-url: none; fill: rgb(167,208,22); fill-rule: nonzero; opacity: 1;" transform=" translate(-1282.4399, -159.051)" d="M 1266 162 c -3 -4 4 -9 15 -9 c 23 -2 25 3 4 10 c -8 4 -16 3 -19 -1 z" stroke-linecap="round"/>
</g>
		<g transform="matrix(0.1333 0 0 -0.1333 19.4478 180.6409)">
<path style="stroke: none; stroke-width: 1; stroke-dasharray: none; stroke-linecap: butt; stroke-dashoffset: 0; stroke-linejoin: miter; stroke-miterlimit: 4; is-custom-font: none; font-file-url: none; fill: rgb(167,208,22); fill-rule: nonzero; opacity: 1;" transform=" translate(-1645.8618, -145.1924)" d="M 1638 143 c 7 -3 16 -2 19 1 c 4 3 -2 6 -13 5 c -11 0 -14 -3 -6 -6 z" stroke-linecap="round"/>
</g>
		<g transform="matrix(0.1333 0 0 -0.1333 -7.2189 181.9742)">
<path style="stroke: none; stroke-width: 1; stroke-dasharray: none; stroke-linecap: butt; stroke-dashoffset: 0; stroke-linejoin: miter; stroke-miterlimit: 4; is-custom-font: none; font-file-url: none; fill: rgb(167,208,22); fill-rule: nonzero; opacity: 1;" transform=" translate(-1445.8618, -135.1924)" d="M 1438 133 c 7 -3 16 -2 19 1 c 4 3 -2 6 -13 5 c -11 0 -14 -3 -6 -6 z" stroke-linecap="round"/>
</g>
</g>
</g>
</svg>